<svg xmlns="http://www.w3.org/2000/svg" viewBox="0 0 200 200">
  <!-- 배경 원 -->
  <circle cx="100" cy="100" r="100" fill="#FF8B6A"/>
  <!-- 별빛 후광 -->
  <circle cx="100" cy="100" r="85" fill="#FF9E82" opacity="0.4"/>
  <!-- 큰 별 -->
  <polygon points="100,30 113,72 158,72 122,97 136,140 100,115 64,140 78,97 42,72 87,72"
           fill="white" opacity="0.95"/>
  <!-- 작은 별 1 -->
  <polygon points="155,45 159,57 171,57 162,64 165,76 155,69 145,76 148,64 139,57 151,57"
           fill="white" opacity="0.7"/>
  <!-- 작은 별 2 -->
  <polygon points="45,140 48,149 57,149 50,154 53,163 45,158 37,163 40,154 33,149 42,149"
           fill="white" opacity="0.6"/>
  <!-- 반짝임 점들 -->
  <circle cx="160" cy="130" r="4" fill="white" opacity="0.8"/>
  <circle cx="40" cy="60" r="3" fill="white" opacity="0.7"/>
  <circle cx="130" cy="165" r="3" fill="white" opacity="0.6"/>
  <!-- 하단 텍스트 영역 (원형) -->
  <ellipse cx="100" cy="158" rx="45" ry="14" fill="white" opacity="0.25"/>
  <!-- DA 텍스트 -->
  <text x="100" y="164" text-anchor="middle" font-family="Arial, sans-serif"
        font-size="16" font-weight="bold" fill="white" letter-spacing="2">DA</text>
</svg>
